<svg id="Layer_1" xmlns="http://www.w3.org/2000/svg" viewBox="0 0 919.7 287.1"><style>.st0{fill-rule:evenodd;clip-rule:evenodd}</style><path class="st0" d="M601.5 206.7c4.5.3 8.2-.8 8.3-2.4.1-1.6-3.4-3.2-7.9-3.5-4.5-.3-8.2.8-8.3 2.4-.1 1.6 3.4 3.2 7.9 3.5zM314.5 208.4c4.9-.3 8.9-1.9 8.8-3.7-.1-1.8-4.2-3-9.1-2.8-4.9.3-8.9 1.9-8.8 3.7.1 1.9 4.1 3.1 9.1 2.8zM298.6 238.4L278.7 263c-1.2 1.4-4.3 2.8-6.8 2.8-1.6 0-1.6 2.4 0 2.4 3.1 0 7.3-2 9.1-4.1l18.9-23.4c1-1.2-.3-3.5-1.3-2.3zM299.7 50l-60.3-8.8-49.9 1.9 6 1.5 44.2-1 55.5 8.5zM362.9 91.8l-8.7-5.3 6.8 7.6zM365.7 117.2l3.8-1-12.5-9.1zM358.7 77.2L370 87.6l1.9-3-10.2-9.3-45.9-20.7 2.7 3zM344.3 82.9l-27.6-17.1.3 2 21.3 14.3-5.7 1.4 14.6 15.8h4.3l-14.6-14.1zM280.7 58.3l25.5 6.6 1.2-2.4-29.5-6.3zM328.9 107.9l4.9.5-10.8-9.1 5-.4-12.8-9.7-.2 2.3 6.5 6.1-3 1.7zM308.5 75.7l-30.2-9.9 1 1.9 19.1 7.8-3.7 1.5 12.6 5.2 5.5-.2-11.1-4.8zM256.4 53.2l-28.5-2.5 2.8 2.1 20.9 2.2-2.6 4 15.2 2.2 1.9-2.6-12.8-1.3zM271.6 79.9L287 85l3.7-.9-19.3-6.6zM678.3 43.6l44.2 1 6.1-1.5-49.9-1.9-60.4 8.8 4.6 2.1zM557 94.1l6.8-7.6-8.7 5.3zM552.4 117.2l8.7-10.1-12.6 9.1zM599.5 57.6l2.8-3-45.9 20.7-10.2 9.3 1.9 3 11.2-10.4zM579.8 82.1L601 67.8l.4-2-27.7 17.1 7.5 2.3-14.7 14.1h4.3l14.6-15.8zM637.4 58.3l2.7-2.1-29.4 6.3 1.2 2.4zM595.1 99.3l-10.8 9.1 4.8-.5 10.4-8.6-2.9-1.7 6.4-6.1-.1-2.3-12.9 9.7zM610.7 82.2l12.6-5.2-3.7-1.5 19.2-7.8 1-1.9-30.3 9.9 6.8 1.5-11 4.8zM664.8 57.3l-12.9 1.3 1.9 2.6L669 59l-2.6-4 21-2.2 2.8-2.1-28.5 2.5zM631 85l15.4-5.1.3-2.4-19.3 6.6zM751.4 90.7c-7.4 1.4-13.2 3.7-16 6.4 6.1 5 4.4 13 1.7 15.5 18.1 9.5 43.2-10.8 53.7-8.6l5.7-5.2c-13.2-6.4-24.6-8.8-34-9l-2 1.8 1.7 1.7c6.8 0 12.2 1.5 14.5 1.9-15.3 1.7-7.8.8-6.2 1.5 1.9.9 9.8 1 10 1.9-5.9-.1-16.2-.5-21.2 1.8-1.7.8 19.7-.1 6.9 2l-19.3 2 17.3 1.3c-1.5-.1-23.2 1.1-24.2.1-.6-.6 3.3-1.6 3-2.6-.4-1.4-3.8 0-3.6-2.4 1.6-.7 12.5-4.1 20.7-5.5 2.1-.4-14.8.4-12.6.1l3.9-4.7zM747.3 171.7l36.9 4.6c.7.3 1 1.1.8 2.8-.3 2.5 2 1.5 2.1 1 0 0 1.5-2.8-.8-5.3-.5-.7-1.7-.9-1.7-.9l-37.7-4.7s-1 .1-1 .9c.1 1.4 1.4 1.6 1.4 1.6zM780.3 190.3c-.4.8-.1 1.5-2.4 2.7-2.4 1.2.4 2 .9 1.8 0 0 3.3-.5 4.2-3.6.4-1-2-2.1-2.7-.9zM558.9 215.6h-85.6c-.8 0-1.5.7-1.5 1.5s.7 1.5 1.5 1.5h13.3l1.5 7.4c.1.7.8 1.2 1.4 1.2h.3c.8-.2 1.3-1 1.1-1.8l-1.4-6.7h49.9l2.2 7.5c.2.6.8 1.1 1.4 1.1.1 0 .3 0 .4-.1.8-.2 1.2-1.1 1-1.8l-1.9-6.6h16.4c.8 0 1.5-.7 1.5-1.5-.1-1-.7-1.7-1.5-1.7zM463.2 215.6H347.9c-.8 0-1.5.7-1.5 1.5s.7 1.5 1.5 1.5h26.7l-1.6 6.7c-.2.8.3 1.6 1.1 1.8h.3c.7 0 1.3-.5 1.4-1.1l1.8-7.4h53.9l.1 7.4c0 .8.7 1.5 1.5 1.5s1.5-.7 1.5-1.5l-.1-7.3h28.6c.8 0 1.5-.7 1.5-1.5 0-.9-.6-1.6-1.4-1.6zM79.2 215.6h-6.5c-.8 0-1.5.7-1.5 1.5s.7 1.5 1.5 1.5h6.5c.8 0 1.5-.7 1.5-1.5s-.7-1.5-1.5-1.5zM228.1 215.6h-88c-.8 0-1.5.7-1.5 1.5s.7 1.5 1.5 1.5h9.3l-5.7 6c-.6.6-.5 1.5.1 2.1.3.3.7.4 1 .4.4 0 .8-.2 1.1-.5l7.5-8s0-.1.1-.1h45.2l-4.6 6.2c-.5.7-.4 1.6.3 2.1.3.2.6.3.9.3.5 0 .9-.2 1.2-.6l5.9-7.9h25.9c.8 0 1.5-.7 1.5-1.5-.3-.8-.9-1.5-1.7-1.5zM128.1 215.6H87.9c-.8 0-1.5.7-1.5 1.5s.7 1.5 1.5 1.5h8.7l-6.1 6c-.6.6-.6 1.5 0 2.1.3.3.7.4 1.1.4.4 0 .7-.1 1-.4l8.2-8 .1-.1h27.3c.8 0 1.5-.7 1.5-1.5-.1-.8-.8-1.5-1.6-1.5zM65.6 215.6h-27c-.8 0-1.5.7-1.5 1.5s.7 1.5 1.5 1.5h9.8l-6.6 6c-.6.6-.7 1.5-.1 2.1.3.3.7.5 1.1.5.4 0 .7-.1 1-.4l8.8-8c.1 0 .1-.1.1-.2h12.9c.8 0 1.5-.7 1.5-1.5-.1-.8-.7-1.5-1.5-1.5zM802.1 218.2H818l8.9 8.5c.3.3.7.4 1 .4.4 0 .8-.2 1.1-.5.6-.6.6-1.5 0-2.1l-6.7-6.4h46.4l9.9 8.6c.3.2.6.4 1 .4s.8-.2 1.1-.5c.5-.6.5-1.5-.1-2.1l-7.3-6.3h6.2c.8 0 1.5-.7 1.5-1.5s-.7-1.5-1.5-1.5h-77.4c-.8 0-1.5.7-1.5 1.5.1.8.7 1.5 1.5 1.5zM737.4 218.2h26.2l7.1 8.4c.3.3.7.5 1.1.5.3 0 .7-.1 1-.4.6-.5.7-1.5.2-2.1l-5.5-6.5h25c.8 0 1.5-.7 1.5-1.5s-.7-1.5-1.5-1.5H737.4c-.8 0-1.5.7-1.5 1.5 0 .9.7 1.6 1.5 1.6z"/><path class="st0" d="M643.5 246.7h272.7l-3.2-16.5-18.7-19.2-1.5-7-37.9-32.7h-60.5c-.3-.7-2.4-4.8-9.5-5.6l-194.7-22.6 5.4-1c.1-.2 11.3-1 19-2.6 6.9-1.4 10.4-3.6 10.4-3.6 3.5.5 7.4-.2 7.4-.2s98.5-21 100.8-21.6c2.3-.6 3.5-2.6 3.5-2.6 3.7-6.6.3-11.2-1.4-13.2-1.8-1.9-3.6-1.5-3.6-1.5s-96.7 11.2-102.5 12c-5.8.8-8.7 2.8-8.7 2.8-2-.8-3.9-1.2-5.8-1.4l22.2-10.3-6.5-3.8L674.1 84l-10-8 49.4-5.7-9.2-8 54.8-2.6-10.4-7.1 37-3.5 24.6 2.1 29.6-4.3-99.8-17.3-7.2 4.9.9-5.3-62.8-1.8-69.5 10.9-4.1 4.9-5.8-3-52.9 26.7-14.9 15.8 7.2 14.6 9.9 4.9-7.3 7.3-.6 2.1-32.3-30.1c1.1-1 1.6-4.8 1.6-4.8V54.1c-.7-16.3-30.6-20.4-30.6-20.4L468.4 10c-1.1-6.5-10.6-6.6-10.6-6.6-11.4.1-11.7 6.6-11.7 6.6l-3.2 23.9c-35.1 5.2-33.1 20.3-33.1 20.3l.1 20.7c-.3 4.7 5.1 8.2 5.1 8.2l-29.5 29.5-1.1-3.1-7.3-7.3 9.9-4.9 7.2-14.6-14.9-15.8-52.8-26.7-5.9 3-4.1-4.9L247 27.4l-62.7 1.9.9 5.3-7.2-4.9-99.8 17.2 29.6 4.3 24.6-2.1 37 3.5-10.4 7 54.8 2.6-9.2 8L254 76l-10.1 7.9L287.6 96l-6.5 3.8 22.1 10.3-82.7-9.5s-42 3.4-73 5.5l-3.8 5.8 6.2 3.9s43.6 12.3 65.6 22.8l124.1 13c-42.5 7-82.6 13.8-117.1 19.8H64.3L30 204l-3.5 8.2-20 22.9-3 11.5h269.9c1.1 2.8 2.5 4.3 2.5 4.3l-5.5 6.8c-4.9 6.5-3.5 10.4-3.5 10.4l-3.4 7.7 7.4-4.2c9.3 1.1 15-6.5 15-6.5l8.9-11.7h16.8l5.8-6.9h281.8l5.9 6.9H623l20.4 30.1 2.1-7.8-24.8-32.5s-2.2-2.7-.9-3.7c1.5-1.2 2.5.3 2.5.3l24.6 31.8 2.8-8.9-9.4-11c1.4-1.4 2.5-3.2 3.2-5zm149.7-53.6c2.6-4.6 3.4-8.9 3.4-12.4l54.3-.1 29.5 25.5H626.6c1.7-11.5-20.7-15.3-20.7-15.3l-9.1-10.5 183.1 20.2c-.2.2 7.3 3.1 13.3-7.4zM602 197.2c10.2.7 18.2 4.2 18 7.9-.2 3.7-8.6 6.2-18.8 5.5-10.2-.7-18.2-4.2-18-7.9.2-3.7 8.7-6.2 18.8-5.5zm-20.7-2.4l-58.7-65.1 28.1 7.4 46.7 53.9h-2.6c-10.2.2-13.5 3.8-13.5 3.8zm159-27.4c1.4.1 1-.8 1-.8l-.4-1.1 44.7 5c2.5.2 3.5 2.2 3.5 2.2 3 3.8 2.6 11.1 0 16.9-3.3 7.1-8.3 7.5-8.3 7.5l-38.4-4.3s3.3-5.8 3.1-6l30.2 3.7c2.4.2 3.4-2.4 1.9-2.6l-32.1-4s-1.8 0-2.3 1.6l-3.6 7-2.5-.4c0 .1 1.7-3.3 3.1-6.8.2-.4.8-2.3-1.5-2.4l-154.6-17.1-2.3-2.7 156.9 17.6c2.4.2 2.7-1.5 2.7-1.5l.5-7.8c.2-1.7-1.8-2.2-1.8-2.2L570.6 150l-2-2.4 171.7 19.8zm-141.5-43s-16.9 2.5-44.9 6.8l-4.7-4.4c32.4-4.7 47.9-6.7 47.9-6.7 1 .6 1.9 2.4 1.7 4.3zm1-7.3l4.2-1.9c.5.1.9.2 1.4.3 0 0 3.1 1.3 5.9 6.2l.2.6s-3.4-.5-8.7.6c-.1 0-1.3-3.4-3-5.8zm12.8 11.8c-2.3 2-4.1 2.1-4.1 2.1l-3.7-3.5 7.4-1.5c.1 0 .6 2.2.4 2.9zm11.9-2.5c-.9 1.4-7.4 3.3-7.4 3.3l-.4-4.3 7.6-1.9c.1 0 .3 2.2.2 2.9zm111.1-21.9s.4 1.8-.3 3.1l-95.1 17.3s-7.3 1.4-10.8 1.4c0 0-.3-2.3-.7-3.8l106.9-18zm-105.9 7.2l102.8-12.4c1.4.6 2.7 3.5 2.7 3.5l-107.7 16.9c-2-4.5-4.6-6.5-4.6-6.5 2.5-1.4 6.8-1.5 6.8-1.5zm-10.6 2.3s3.3 2.7 4.2 6.1c-2.8-.1-7.9 1-7.9 1s-1.6-4.5-5.9-7.2c0 0 3.4-2.2 9.6.1zm-80-23.2l-5.3-6.9 13-11.5 52.4-25.5 72-12.5 60.1 2.2 48.6 7.6-48 5.5 9 5.5-49.6 3.5 9.4 7.9-50 7 12.3 8.6-46.5 12.3 8.5 5.9-26.2 11.5c-3.6-.2-6.6.5-6.6.5l1 1.7c-1-.5-2.7-.4-2.7-.4l-1.6.2c-5.5.6-11.6 1.3-18.2 2.1l6.4-5.5-9.9 6c-7.8 1-16.2 2.1-25.3 3.4l-.4-.4 1.3-7.2 9.6-8.5-.5-5.6-12.8-7.4zm-75.2-78.6l2.4 21.1-3-.2-1.7-23.8c1.2.7 2 1.7 2.3 2.9zm-13.1 0c.9-2.9 4.4-4.2 7.7-3.9l.6 24.4c-6.5-.1-10.2.5-10.2.5l1.9-21zm-37.9 42.2c0-9.7 19.4-18.4 43.2-18.4 23.8 0 43.1 8.7 43.1 18.4 0 6.9-9.9 12.9-24.2 15.8-3.9-1.5-6.7-2.3-10.1-2.6l-1-13.4c7.8 1.1 16 4.3 16.1 9.3 6.8-2.2 11-5.4 11-9 0-6.8-15.5-13.2-34.6-13.2s-34.7 6.4-34.7 13.2c0 3.6 4.2 6.8 11 9 .7-6 10-8.5 18.4-9.3l-.5 13.5c-3.9.4-8.1 1.3-11 2.9-15.6-2.6-26.7-8.9-26.7-16.2zm34.6 15.5c1.7-.2 5.5-1 10.8-1 5.9 0 8.6.6 11 1.3L458.2 73l14.5 4.7c-3.2 1.5-8.5 2.5-14.5 2.5-5.2 0-11.4-1.1-14.6-2.2 0 0 14.4-4.9 14.6-4.9-.1-.2-10.7-3.2-10.7-3.2zm5.2-2.4l.4-16.7c.2-2.2 2.4-3.7 4.8-3.6.3 0 .7 0 1 .1l.4 20c-1.7 0-4 0-6.6.2zm8-19.2c.7.6.9 1.4 1 2.6l.9 16.6-1.4-.1-.5-19.1zm-167.4 51.9l8.5-5.9L255.3 82l12.3-8.6-50-7 9.4-7.9-49.6-3.5 9-5.5-48.1-5.5 48.6-7.6 60.1-2.2 72 12.5 52.4 25.5 13 11.5-5.3 6.9-12.8 7.4-.5 5.6 7.9 7.9 3.5 7.2-27.5-3.2-8.6-5.2 5.6 4.8-20.1-2.3-33.3-12.6zM224 126c-1.3-.2-2.4.5-3 1.6-1.1 1.9-2.3 4.5-4 6.1-17.5-6.1-45.8-14.6-45.8-14.6l4.7-1-2.5-1.9s27.7 6.2 40.1 9.8c-14.4-6.3-38.1-13-38.1-13l-2.8-4.4c4.9-.2 48.6-3.8 48.6-3.8l.9 2.4s.5 1.7 2.7 1.7l147.6 16.7-1.8 1.8L227 111c-4.2-.7-3.8 2.2-3.8 2.2l-.3 6.9c-.1 3.1 2.8 3.2 2.8 3.2l133.9 15.1-2.3 2.3-.1.1L224 126zm138.1 18.6l71.2-70.3 3.2.6s0 7.6 21.7 7.6c21.5 0 20.5-8.1 20.5-8.1l4.3-.9 63.4 59.1-28-7.6-40.1-44.2s-8.7 3.6-20 3.8c-10.8.2-17.5-2.5-20.2-3.9l-104 114.9s-4.9-3.5-15.6-3.5l43.6-47.5zm181.2 36.1l21.6 25.6H351.3L375 178c.5-.1 1.1-.2 1.7-.2l-2.8 2.9h169.4zm-149.5-24.4l3.5-4.7 16.2-2.6 15.3 1.7-35 5.6zm64.9 9.1l50.8 5.7-89.5.4c13.2-2.1 26.1-4.1 38.7-6.1zm-56.4-20l1.9-2.2 118.7 13.4 2 2.3-122.6-13.5zm107.7-4.1l.5.7 1.2 1.4-98.4-11.1 1.6-1.8 95.1 10.8zm-89.3-17.9l19.6-23.3c22.1 5.5 37.4-.2 37.4-.2l20.3 26c-4.9.8-13 2.1-22.8 3.7l-54.5-6.2zm89.4 9.9l-29.8-34.7-.1-9.6 33.1 36.8c-3.5 1.7-3.2 7.5-3.2 7.5zm-196 64.6c10.6-.6 19.3 2.3 19.5 6.3.2 4-8.2 7.7-18.8 8.3-10.6.5-19.3-2.3-19.5-6.3-.2-4 8.2-7.7 18.8-8.3zm-26 8.4H140c65.6-6.6 124.3-13.4 175.5-20.1l-6.2 6.7c-17.3 3-21.2 8.8-21.2 13.4zm51.5-46.3l-5.1 5.6c-54.7 8.9-174.6 27.4-220.3 35.8-5.3.6-5.6-3-2-3.9C170 187 289 168.4 339.6 160zm-271 20.7h101.5c-30.3 5.5-51.3 9.5-58.4 11.3-13.3 3.1-17.8 10.4-11.6 14.3h-59l27.5-25.6zm203.9 54.8l-253.2-.1 16.4-18.3 1.3-4.9 252.9-.2c.2.3.3.4.3.4l-3.1 3.1h-45.5c-.8 0-1.5.7-1.5 1.5s.7 1.5 1.5 1.5h8.5l-3.9 7.6c-.4.7-.1 1.6.6 2 .2.1.4.2.7.2.5 0 1-.3 1.3-.8l4.6-8.9h30.7l-7.3 7.2c-2.4 3.5-3.7 6.8-4.3 9.7zm6 1.3s.8-4.8 2.4-5.9h26c1.5.1 3.1 5.7 3.1 5.7h-7.4s-1.1-3.8-6.2-4.3c-5.6-.5-8.8 4.5-8.8 4.5h-9.1zm6.9 3l-5.5 6.9c-2.5-2.9-2-6.9-2-6.9h7.5zm-2.1 24.8c-4.8 6.1-13.3 5.7-13.3 5.7l-4.2 3.1 2-4.8s-.9-5.7 4.7-11.6l17.9-21.2c2.4-2.9 10.3-3.9 11.5 2.9.5 2.2-1.1 4.2-1.1 4.2l-17.5 21.7zm27.1-23.8c-.4 4.3-3.3 6.7-3.3 6.7h-7.6c.1.1 2.6-3.3 2.5-3.3 2.1-3 1.5-4.3 1.5-4.3h7v.9zm-4.1-16.2h-19.8l9.2-8.8s7.6 3.7 16.2 2.8l.1-.1-5.7 6.1zm5.7 3.1l9-10.2c3.5-.4 7-2 7-2l-13.3 16c-.4-.9-2.7-3.8-2.7-3.8zm4.1 13.6c1.2-3 0-6.5 0-6.5s18.8-22.3 19.1-22.9c.6-.3 2.2-2 2.2-2 5.3-6.7.2-11.9.2-11.9l98.3-109 .2 9.7-120 142.6zm10.6-5.8l19.6-23.4h223.5l19.5 23.1-262.6.3zm273.5 6L513.6 137c-1.3-6.8 1.9-9 1.9-9l62.3 69.3c-4.9 7 1.6 12 1.6 12l21.2 26c-1.4 3.2-.4 6.2-.4 6.2zm1.6-9.7l-14.5-17.7c3.3 1.4 7.3 2.1 7.3 2.1l9.9 11c-1.2 1-2.7 4.6-2.7 4.6zm1.7-14.6c7.9 1.2 16.3-2.7 16.3-2.7l10.6 10.1-20.4.2-6.5-7.6zm5.2 30.6c-3.3-3.5-2.7-7.5-2.7-7.5h8.5s.3 1.4.9 2.5l3.3 5h-10zM615 237h-8.6c1.2-3.5 3.5-6 3.5-6l25.8-.2c1.5 1.9 2.1 6 2.1 6h-10.6c-5.2-6-11.7-1.9-12.2.2zm21.1 10.6l-6.2-7.9h8.3s.8 4.5-2.1 7.9zm-3.8-29.4h15.8l3.5 8c.2.6.8.9 1.4.9.2 0 .4 0 .6-.1.7-.3 1.1-1.2.8-1.9l-3-6.9h51.4v.1l4.9 9c.3.5.8.8 1.3.8.2 0 .5-.1.7-.2.7-.4 1-1.3.6-2l-4.2-7.6h13.7c.8 0 1.5-.7 1.5-1.5s-.7-1.5-1.5-1.5h-70.5c-.2-.1-.4-.1-.6 0h-19.4l-3.1-3.1h257.4l1.1 3.4 17.8 15.6.2 4.4-258.4-.1c-1.3-5.9-4.7-10-4.7-10l-7.3-7.3z"/></svg>